<?xml version="1.0" encoding="UTF-8"?>
<svg id="Layer_1" data-name="Layer 1" xmlns="http://www.w3.org/2000/svg" viewBox="0 0 666.67 663.36">
  <defs>
    <style>
      .cls-1 {
        fill: #000;
        stroke-width: 0px;
      }
    </style>
  </defs>
  <path class="cls-1" d="M633.33,396.69c-18.41,0-33.33,14.92-33.33,33.33v133.33c0,18.41-14.92,33.33-33.33,33.33H100c-18.41,0-33.33-14.92-33.33-33.33v-133.33c0-18.41-14.92-33.33-33.33-33.33S0,411.62,0,430.02v133.33c0,55.23,44.77,100,100,100h466.67c55.23,0,100-44.77,100-100v-133.33c0-18.41-14.92-33.33-33.33-33.33Z"/>
  <path class="cls-1" d="M281.94,3.94c-68.15,15.2-124.02,52.96-162.45,110.17-67.26,100.78-53.85,235.97,31.95,322.23,25.7,25.92,64.8,50.95,94.3,60.56,10.95,3.58,12.29,3.58,17.21.22,5.36-3.58,5.59-4.47,5.59-30.17v-26.37l-19.66,1.12c-23.02,1.12-40.89-2.9-51.62-12.07-3.8-3.13-11.17-13.85-16.31-23.69-8.49-16.54-14.75-24.13-32.18-39.55-5.81-5.14-6.03-5.36-2.01-8.27,9.61-7.15,29.05-.22,41.34,14.52,21.45,26.14,29.72,33.07,42.01,35.75,10.95,2.23,21.01,1.34,36.2-3.13,2.01-.67,4.69-5.36,6.03-10.73,1.34-5.14,4.92-12.96,7.82-17.21l5.36-7.82-18.1-3.58c-37.99-7.82-61.45-21.45-76.87-44.69-14.3-21.45-18.99-40-19.22-74.64,0-32.62,3.58-46.03,17.65-64.36,6.26-8.04,6.93-10.5,5.14-15.2-3.35-8.04-2.46-42.01,1.12-52.29,2.9-7.6,4.47-8.94,10.5-9.61,10.06-1.12,28.83,5.36,47.82,16.09l16.31,9.39,14.3-3.35c20.33-4.69,81.34-4.47,99.66,0l13.85,3.58,12.96-7.82c17.21-10.28,39.11-18.32,50.05-18.32,8.71,0,8.71.22,12.29,11.62,3.8,13.18,4.47,37.09,1.12,48.49-1.79,6.7-1.34,8.71,3.58,15.2,24.36,32.18,27.04,85.58,6.48,129.38-13.85,28.83-43.13,48.94-82.46,56.31l-18.77,3.58,6.93,12.29,7.15,12.51.67,49.83.89,49.83,5.59,3.58c5.14,3.35,6.26,3.35,16.98-.45,17.88-6.03,48.49-22.57,65.25-35.31,99.66-74.64,131.84-208.49,76.65-319.77-32.4-65.47-93.63-115.75-163.8-134.52-30.61-8.04-88.27-9.83-117.32-3.35Z"/>
</svg>