<?xml version="1.0" encoding="UTF-8"?>
<svg id="Layer_1" data-name="Layer 1" xmlns="http://www.w3.org/2000/svg" viewBox="0 0 666.67 666.5">
  <defs>
    <style>
      .cls-1 {
        fill: #f800ff;
        stroke-width: 0px;
      }
    </style>
  </defs>
  <path class="cls-1" d="M223.67,190.17l76.33-76.67v319.67c0,18.41,14.92,33.33,33.33,33.33s33.33-14.92,33.33-33.33V113.5l76.33,76.67c12.96,13.07,34.07,13.16,47.14.19.06-.06.13-.13.19-.19,13.07-12.96,13.16-34.07.19-47.14-.06-.06-.13-.13-.19-.19L357,9.5c-3.17-3.03-6.91-5.41-11-7-8.12-3.33-17.22-3.33-25.33,0-4.09,1.59-7.83,3.97-11,7l-133.33,133.33c-13.07,13.07-13.07,34.26,0,47.33,13.07,13.07,34.26,13.07,47.33,0h0ZM633.33,399.83c-18.41,0-33.33,14.92-33.33,33.33v133.33c0,18.41-14.92,33.33-33.33,33.33H100c-18.41,0-33.33-14.92-33.33-33.33v-133.33c0-18.41-14.92-33.33-33.33-33.33S0,414.76,0,433.17v133.33c0,55.23,44.77,100,100,100h466.67c55.23,0,100-44.77,100-100v-133.33c0-18.41-14.92-33.33-33.33-33.33Z"/>
</svg>