<?xml version="1.0" encoding="iso-8859-1"?>
<!-- Uploaded to: SVG Repo, www.svgrepo.com, Generator: SVG Repo Mixer Tools -->
<!DOCTYPE svg PUBLIC "-//W3C//DTD SVG 1.1//EN" "http://www.w3.org/Graphics/SVG/1.1/DTD/svg11.dtd">
<svg fill="#000000" version="1.1" id="Capa_1" xmlns="http://www.w3.org/2000/svg" xmlns:xlink="http://www.w3.org/1999/xlink" 
	 width="600px" height="600px" viewBox="0 0 32.259 32.258"
	 xml:space="preserve">
<g>
	<path d="M32.175,15.696c-0.094-0.138-0.248-0.221-0.415-0.221h-4.488V7.731c0-0.275-0.224-0.5-0.5-0.5H9.913V4.31
		c0-0.276-0.224-0.5-0.5-0.5H0.5C0.225,3.81,0,4.034,0,4.31v23.639c0,0.275,0.225,0.5,0.5,0.5h0.127h26.145h0.127
		c0.203,0,0.387-0.124,0.463-0.312l4.86-11.973C32.285,16.009,32.268,15.835,32.175,15.696z M26.562,27.449H1.369l5.278-13h7.834
		l-0.543,1.34c-0.063,0.153-0.044,0.328,0.049,0.466s0.248,0.222,0.415,0.222h16.613L26.562,27.449z"/>
</g>
</svg>